<?xml version="1.0" encoding="utf-8"?>
<!-- Generator: Adobe Illustrator 26.3.1, SVG Export Plug-In . SVG Version: 6.00 Build 0)  -->
<svg version="1.1" id="Ebene_1" xmlns="http://www.w3.org/2000/svg" xmlns:xlink="http://www.w3.org/1999/xlink" x="0px" y="0px"
	 viewBox="0 0 5669.3 1417.3" style="enable-background:new 0 0 5669.3 1417.3;" xml:space="preserve">
<style type="text/css">
	.st0{fill:#999999;}
	.st1{fill:#C83771;}
	.st2{fill:#808080;}
	.st3{fill:#B3B3B3;}
	.st4{fill:#FFCC00;}
</style>
<g>
	<path class="st0" d="M3833.7,1225.4c-114.9,0-208.4-93.5-208.4-208.4c0-114.9,93.5-208.4,208.4-208.4
		c114.9,0,208.4,93.5,208.4,208.4C4042.1,1131.9,3948.6,1225.4,3833.7,1225.4z M3833.7,818.7c-109.3,0-198.3,89-198.3,198.3
		c0,109.3,89,198.3,198.3,198.3c109.3,0,198.3-89,198.3-198.3C4032,907.7,3943,818.7,3833.7,818.7z"/>
</g>
<g>
	<path class="st1" d="M5044.9,1238.1c-219.2,0-397.4-178.3-397.4-397.5c0-219.2,178.3-397.4,397.4-397.4s397.4,178.3,397.4,397.4
		C5442.3,1059.9,5264,1238.1,5044.9,1238.1z M5044.9,510.8c-181.9,0-329.9,148-329.9,329.9c0,181.9,148,329.9,329.9,329.9
		c181.9,0,329.9-148,329.9-329.9C5374.7,658.8,5226.8,510.8,5044.9,510.8z"/>
</g>
<g>
	<path class="st0" d="M4581.1,1003.5c-126.9,0-230.2-103.3-230.2-230.2s103.3-230.2,230.2-230.2c126.9,0,230.2,103.3,230.2,230.2
		S4708.1,1003.5,4581.1,1003.5z M4581.1,553.2c-121.3,0-220.1,98.7-220.1,220.1s98.7,220.1,220.1,220.1
		c121.3,0,220.1-98.7,220.1-220.1S4702.5,553.2,4581.1,553.2z"/>
</g>
<g>
	<path class="st2" d="M424.3,1049.7c-114.9,0-208.4-93.5-208.4-208.4s93.5-208.4,208.4-208.4c114.9,0,208.4,93.5,208.4,208.4
		S539.2,1049.7,424.3,1049.7z M424.3,643c-109.4,0-198.3,89-198.3,198.3c0,109.4,89,198.3,198.3,198.3c109.3,0,198.3-89,198.3-198.3
		C622.6,731.9,533.6,643,424.3,643z"/>
</g>
<g>
	<path class="st2" d="M4186.6,1093.4c-114.9,0-208.4-93.5-208.4-208.4s93.5-208.4,208.4-208.4c114.9,0,208.4,93.5,208.4,208.4
		S4301.5,1093.4,4186.6,1093.4z M4186.6,686.7c-109.3,0-198.3,89-198.3,198.3c0,109.4,89,198.3,198.3,198.3
		c109.3,0,198.3-89,198.3-198.3C4384.9,775.6,4295.9,686.7,4186.6,686.7z"/>
</g>
<g>
	<path class="st0" d="M5395.1,1205.6c-130.3,0-236.3-106-236.3-236.3c0-130.3,106-236.3,236.3-236.3s236.3,106,236.3,236.3
		C5631.4,1099.6,5525.4,1205.6,5395.1,1205.6z M5395.1,755.4c-118,0-213.9,96-213.9,213.9c0,118,96,213.9,213.9,213.9
		s213.9-96,213.9-213.9C5609,851.3,5513.1,755.4,5395.1,755.4z"/>
</g>
<g>
	<path class="st3" d="M423.8,1139.7c-164.2,0-297.9-133.6-297.9-297.9S259.5,544,423.8,544s297.9,133.6,297.9,297.9
		S588,1139.7,423.8,1139.7z M423.8,594.6c-136.3,0-247.2,110.9-247.2,247.2S287.4,1089,423.8,1089S671,978.1,671,841.8
		S560.1,594.6,423.8,594.6z"/>
</g>
<g>
	<path class="st3" d="M4186.6,1182.8c-164.2,0-297.9-133.6-297.9-297.9s133.6-297.9,297.9-297.9c164.2,0,297.8,133.6,297.8,297.9
		S4350.8,1182.8,4186.6,1182.8z M4186.6,637.7c-136.3,0-247.2,110.9-247.2,247.2s110.9,247.2,247.2,247.2
		c136.3,0,247.2-110.9,247.2-247.2S4322.9,637.7,4186.6,637.7z"/>
</g>
<g>
	<path class="st4" d="M5044.9,1118.9c-153.4,0-278.2-124.8-278.2-278.2s124.8-278.2,278.2-278.2c153.4,0,278.2,124.8,278.2,278.2
		S5198.3,1118.9,5044.9,1118.9z M5044.9,588.9c-138.8,0-251.8,113-251.8,251.8c0,138.9,113,251.8,251.8,251.8
		c138.8,0,251.8-113,251.8-251.8C5296.7,701.8,5183.7,588.9,5044.9,588.9z"/>
</g>
<polygon points="0,1066.6 133.5,960.9 268.2,1053 268.2,1181 338,1083.1 372,1117 372,969.7 424.3,819.4 473.8,967.7 473.8,1200.4 
	551.3,1139.3 660.9,1240.2 660.9,1322.6 742.3,1264.4 815,1335.2 815,1386.6 934.3,1390.4 934.3,1338.1 971.6,1300.8 1006.5,1335.7 
	1006.5,1309 1057.7,1257.9 1105.9,1306.1 1105.9,1353.6 1129.2,1330.3 1151.5,1352.6 1151.5,1390.4 3453.1,1390.4 3453.1,1364.3 
	3473.4,1343.9 3491.4,1361.8 3491.4,1390.4 3513.2,1390.4 3513.2,1361.4 3565.1,1309.5 3607.2,1351.7 3607.2,1332.3 3638.3,1301.2 
	3676.5,1339.5 3676.5,1390.4 3758.5,1390.4 3758.5,1310.9 3807.9,1261.5 3842.8,1296.4 3863.2,1276 3891.3,1304.2 3960.1,1235.3 
	4017.3,1292.5 4017.3,1236.3 4127.4,1126.2 4127.4,936.2 4143.4,931.9 4178.3,652.6 4215.6,931.7 4230.6,936.2 4230.6,1124.8 
	4302.9,1197 4347.4,1152.4 4404.7,1209.6 4409,789.3 4462.3,488.8 4509.8,795.2 4509.8,1021.1 4544.7,985.2 4569,985.2 4569,795.2 
	4620.4,488.8 4673.7,792.3 4673.7,986.2 4721.2,987.1 4766.8,1059.8 4766.8,1102.5 4792,1131.6 4792,1180.1 4842.4,1179.1 
	4842.4,984.2 4887,779.6 4931.6,982.3 4931.6,1184.9 4987.8,1136.4 4987.8,990 4975.2,973.6 4975.2,913.4 4987.8,858.2 
	5003.3,893.1 5047.9,591.6 5079.9,886.3 5096.4,853.3 5110.9,905.7 5110.9,970.6 5098.3,989.1 5100.3,1141.3 5167.2,1206.2 
	5177.1,1193.3 5182.7,1185.9 5272.8,1185.9 5272.8,1068.6 5286.4,1046.3 5312.6,767 5353.3,1040.4 5369.8,1066.6 5389.2,1042.4 
	5410.5,776.7 5446.4,1041.4 5465.8,1067.6 5465.8,1416.7 0,1416.7 "/>
<g>
	<path class="st0" d="M743.6,1239.9c-114.9,0-208.4-93.5-208.4-208.4c0-114.9,93.5-208.4,208.4-208.4S952,916.5,952,1031.5
		C952,1146.4,858.5,1239.9,743.6,1239.9z M743.6,833.1c-109.3,0-198.3,89-198.3,198.3c0,109.3,89,198.3,198.3,198.3
		s198.3-89,198.3-198.3C941.9,922.1,853,833.1,743.6,833.1z"/>
</g>
</svg>
