<?xml version="1.0" encoding="UTF-8" standalone="no"?>
<!-- Created with Inkscape (http://www.inkscape.org/) -->

<svg
   xmlns:dc="http://purl.org/dc/elements/1.1/"
   xmlns:cc="http://creativecommons.org/ns#"
   xmlns:rdf="http://www.w3.org/1999/02/22-rdf-syntax-ns#"
   xmlns:svg="http://www.w3.org/2000/svg"
   xmlns="http://www.w3.org/2000/svg"
   xmlns:sodipodi="http://sodipodi.sourceforge.net/DTD/sodipodi-0.dtd"
   xmlns:inkscape="http://www.inkscape.org/namespaces/inkscape"
   id="svg3039"
   version="1.1"
   inkscape:version="0.48.3.1 r9886"
   width="491.34515"
   height="271.72147"
   sodipodi:docname="ffhl-logo.svg">
  <metadata
     id="metadata3045">
    <rdf:RDF>
      <cc:Work
         rdf:about="">
        <dc:format>image/svg+xml</dc:format>
        <dc:type
           rdf:resource="http://purl.org/dc/dcmitype/StillImage" />
        <dc:title></dc:title>
      </cc:Work>
    </rdf:RDF>
  </metadata>
  <defs
     id="defs3043" />
  <sodipodi:namedview
     pagecolor="#ffffff"
     bordercolor="#666666"
     borderopacity="1"
     objecttolerance="10"
     gridtolerance="10"
     guidetolerance="10"
     inkscape:pageopacity="0"
     inkscape:pageshadow="2"
     inkscape:window-width="718"
     inkscape:window-height="882"
     id="namedview3041"
     showgrid="false"
     showguides="true"
     inkscape:guide-bbox="true"
     inkscape:zoom="1.1393443"
     inkscape:cx="404.30148"
     inkscape:cy="142.74315"
     inkscape:window-x="0"
     inkscape:window-y="16"
     inkscape:window-maximized="0"
     inkscape:current-layer="svg3039"
     fit-margin-top="0"
     fit-margin-left="0"
     fit-margin-right="0"
     fit-margin-bottom="0" />
  <path
     transform="matrix(1.4197874,0,0,1.4197874,-138.71053,-102.89022)"
     d="m 396.04292,150.67574 a 70.458138,70.458138 0 1 1 -140.91628,0 70.458138,70.458138 0 1 1 140.91628,0 z"
     sodipodi:ry="70.458138"
     sodipodi:rx="70.458138"
     sodipodi:cy="150.67574"
     sodipodi:cx="325.58478"
     id="path3984"
     style="fill:none;stroke:#dd0066;stroke-width:15.4952774;stroke-linecap:butt;stroke-linejoin:round;stroke-miterlimit:4;stroke-opacity:1;stroke-dasharray:none;stroke-dashoffset:5.97799968"
     sodipodi:type="arc" />
  <path
     sodipodi:type="arc"
     style="fill:none;stroke:#b3b3b3;stroke-width:15.4952774;stroke-linecap:butt;stroke-linejoin:round;stroke-miterlimit:4;stroke-opacity:1;stroke-dasharray:none;stroke-dashoffset:5.97799968"
     id="path3996"
     sodipodi:cx="325.58478"
     sodipodi:cy="150.67574"
     sodipodi:rx="70.458138"
     sodipodi:ry="70.458138"
     d="m 396.04292,150.67574 a 70.458138,70.458138 0 1 1 -140.91628,0 70.458138,70.458138 0 1 1 140.91628,0 z"
     transform="matrix(1.0565081,0,0,1.0565081,-261.35369,-35.083989)" />
  <path
     sodipodi:type="arc"
     style="fill:none;stroke:#999999;stroke-width:4.76096058;stroke-linecap:butt;stroke-linejoin:round;stroke-miterlimit:4;stroke-opacity:1;stroke-dasharray:none;stroke-dashoffset:5.97799968"
     id="path4000"
     sodipodi:cx="325.58478"
     sodipodi:cy="150.67574"
     sodipodi:rx="70.458138"
     sodipodi:ry="70.458138"
     d="m 396.04292,150.67574 a 70.458138,70.458138 0 1 1 -140.91628,0 70.458138,70.458138 0 1 1 140.91628,0 z"
     transform="matrix(1.094107,0,0,1.094107,-169.32866,-56.94326)" />
  <path
     transform="matrix(0.8125606,0,0,0.8125606,-181.9281,1.6729764)"
     d="m 396.04292,150.67574 a 70.458138,70.458138 0 1 1 -140.91628,0 70.458138,70.458138 0 1 1 140.91628,0 z"
     sodipodi:ry="70.458138"
     sodipodi:rx="70.458138"
     sodipodi:cy="150.67574"
     sodipodi:cx="325.58478"
     id="path3994"
     style="fill:none;stroke:#808080;stroke-width:6.41049814;stroke-linecap:butt;stroke-linejoin:round;stroke-miterlimit:4;stroke-opacity:1;stroke-dasharray:none;stroke-dashoffset:5.97799968"
     sodipodi:type="arc" />
  <path
     transform="matrix(0.95759021,0,0,0.95759021,109.50607,5.3899936)"
     d="m 396.04292,150.67574 a 70.458138,70.458138 0 1 1 -140.91628,0 70.458138,70.458138 0 1 1 140.91628,0 z"
     sodipodi:ry="70.458138"
     sodipodi:rx="70.458138"
     sodipodi:cy="150.67574"
     sodipodi:cx="325.58478"
     id="path4002"
     style="fill:none;stroke:#999999;stroke-width:5.43969631;stroke-linecap:butt;stroke-linejoin:round;stroke-miterlimit:4;stroke-opacity:1;stroke-dasharray:none;stroke-dashoffset:5.97799968"
     sodipodi:type="arc" />
  <path
     sodipodi:type="arc"
     style="fill:none;stroke:#ffcc00;stroke-width:6.41049814;stroke-linecap:butt;stroke-linejoin:round;stroke-miterlimit:4;stroke-opacity:1;stroke-dasharray:none;stroke-dashoffset:5.97799968"
     id="path3972"
     sodipodi:cx="325.58478"
     sodipodi:cy="150.67574"
     sodipodi:rx="70.458138"
     sodipodi:ry="70.458138"
     d="m 396.04292,150.67574 a 70.458138,70.458138 0 1 1 -140.91628,0 70.458138,70.458138 0 1 1 140.91628,0 z"
     transform="matrix(1.0919588,0,0,1.0919588,-31.974529,-53.494403)" />
  <path
     style="fill:#000000;fill-opacity:1;stroke:none"
     d="m 160.38621,9.0025514 -9.65625,85.1875056 -5.21875,3.5 0,114.468743 -16.5625,-16.59375 -12.4375,12.46875 -19.718748,-19.71875 0.0937,-52.625 -4.9375,-3.21875 -10.4375,-74.812499 0,-0.21875 -10.4375,74.812499 -4.9375,3.21875 0.0937,52.65625 -31.592,32.09946 0,51.49445 406.060748,0 0,-101.62516 -4.9375,-3.03125 -9.0625,-72.937493 -9.09375,72.937493 -4.28125,2.625 -4.25,-2.625 -9.09375,-72.937493 -9.09375,72.937493 -4.90625,3.03125 0,36.6875 -23.90625,0 -5.15625,5.15625 -19.3125,-19.28125 0,-39.375 4.4375,-4.4375 0,-17.0625 -3.03125,-15.46875 -3.8125,10.84375 -11.4375,-85.968749 -11.46875,85.968749 -3.8125,-10.84375 -3,15.46875 0,17.0625 4.40625,4.4375 0,39.375 -17.65625,17.625 0,-60.28125 -4.3125,-2.375 -7.90625,-57.968741 -7.9375,57.968741 -4.28125,2.375 0,53.53125 -14.46875,0 0,-13.28125 -8.15625,-8.15625 0,-11.625 -11.59375,-20.0625 -13.15625,0 0,-52.718743 -5.25,-3.5 -9.625,-85.1875056 -9.65625,85.1875056 -5.21875,3.5 0,52.718743 -6.53125,0 -8.875,8.875 0,-61.593743 -5.25,-3.5 z"
     id="path3151"
     inkscape:connector-curvature="0"
     sodipodi:nodetypes="cccccccccccccccccccccccccccccccccccccccccccccccccccccccccccccccccc" />
  <g
     style="font-size:46px;font-style:normal;font-variant:normal;font-weight:normal;font-stretch:normal;text-align:start;line-height:125%;letter-spacing:0px;word-spacing:0px;writing-mode:lr-tb;text-anchor:start;fill:#ffffff;fill-opacity:1;stroke:none;font-family:Vegur;-inkscape-font-specification:Vegur"
     id="text4010"
     transform="translate(-0.87521124,2.4542019)">
    <path
       d="m 48.708633,260.66965 0,-33.12 -3.864,0 0,33.12 3.864,0"
       id="path4034"
       inkscape:connector-curvature="0" />
    <path
       d="m 70.067727,256.98965 0.138,3.68 3.726,0 0,-22.264 -3.864,0 0,12.236 c 0,4.59999 -2.806004,7.36 -6.256,7.36 -3.587997,0 -4.462,-2.02401 -4.462,-6.302 l 0,-13.294 -3.864,0 0,14.49 c 0,5.42799 2.484004,8.234 7.222,8.234 3.311996,0 5.704001,-1.84001 7.268,-4.14 l 0.092,0"
       id="path4036"
       inkscape:connector-curvature="0" />
    <path
       d="m 98.71782,250.41165 c 0.092,-0.828 0.138,-1.518 0.138,-2.208 0,-5.704 -2.990005,-10.258 -8.74,-10.258 -6.209993,0 -10.764,5.152 -10.764,12.006 0,7.54399 4.554007,11.178 10.764,11.178 2.759998,0 4.830002,-0.414 6.992,-1.288 l -0.368,-2.944 c -1.701998,0.828 -4.140002,1.288 -6.072,1.288 -4.461995,0 -7.36,-2.71401 -7.452,-7.774 l 15.502,0 m -8.924,-9.522 c 3.403997,0 5.244,2.806 5.244,6.486 l -11.638,0 c 0.552,-3.91 2.714004,-6.486 6.394,-6.486"
       id="path4038"
       inkscape:connector-curvature="0" />
    <path
       d="m 108.2772,257.21965 c 1.65599,2.71399 4.002,3.91 7.176,3.91 5.97999,0 10.028,-4.96801 10.028,-12.006 0,-6.716 -3.63401,-11.178 -9.752,-11.178 -3.266,0 -5.70401,1.472 -7.452,3.91 l -0.092,0 0,-14.306 -3.864,0 0,33.12 3.726,0 0.138,-3.45 0.092,0 m -0.092,-9.016 c 0,-3.864 2.392,-7.314 6.348,-7.314 4.41599,0 6.9,3.496 6.9,8.602 0,5.28999 -2.39201,8.694 -6.808,8.694 -3.588,0 -6.44,-3.03601 -6.44,-7.314 l 0,-2.668"
       id="path4040"
       inkscape:connector-curvature="0" />
    <path
       d="m 148.5811,250.41165 c 0.092,-0.828 0.138,-1.518 0.138,-2.208 0,-5.704 -2.99,-10.258 -8.74,-10.258 -6.20999,0 -10.764,5.152 -10.764,12.006 0,7.54399 4.55401,11.178 10.764,11.178 2.76,0 4.83,-0.414 6.992,-1.288 l -0.368,-2.944 c -1.702,0.828 -4.14,1.288 -6.072,1.288 -4.46199,0 -7.36,-2.71401 -7.452,-7.774 l 15.502,0 m -8.924,-9.522 c 3.404,0 5.244,2.806 5.244,6.486 l -11.638,0 c 0.552,-3.91 2.71401,-6.486 6.394,-6.486"
       id="path4042"
       inkscape:connector-curvature="0" />
    <path
       d="m 156.62248,249.44565 c 0,-5.612 3.358,-8.556 7.728,-8.556 2.29999,0 4.324,0.552 5.98,1.334 l 0.368,-2.944 c -1.38,-0.69 -3.58801,-1.334 -6.026,-1.334 -6.9,0 -12.098,4.18601 -12.098,12.006 0,7.35999 4.692,11.178 10.902,11.178 2.75999,0 4.738,-0.322 6.992,-1.288 l -0.368,-2.944 c -1.932,0.874 -4.00201,1.288 -5.934,1.288 -4.462,0 -7.544,-2.80601 -7.544,-8.74"
       id="path4044"
       inkscape:connector-curvature="0" />
    <path
       d="m 193.87529,238.40565 -5.014,0 -9.292,10.534 -0.138,0 0,-21.39 -3.864,0 0,33.12 3.864,0 0,-7.452 2.576,-2.76 0.138,0 7.82,10.212 4.968,0 -10.212,-12.972 9.154,-9.292"
       id="path4046"
       inkscape:connector-curvature="0" />
    <path
       d="m 199.64038,255.88565 c -1.472,0 -2.622,1.196 -2.622,2.622 0,1.472 1.15,2.622 2.622,2.622 1.426,0 2.622,-1.15 2.622,-2.622 0,-1.426 -1.196,-2.622 -2.622,-2.622"
       id="path4048"
       inkscape:connector-curvature="0" />
    <path
       d="m 210.10826,236.97965 0,1.426 -3.634,0 0,2.944 3.634,0 0,19.32 3.864,0 0,-19.32 5.704,0 0,-2.944 -5.704,0 0,-2.024 c 0,-4.002 1.702,-6.348 4.784,-6.348 1.426,0 2.346,0.23 3.22,0.552 l 0.368,-2.852 c -0.828,-0.322 -2.392,-0.644 -3.634,-0.644 -5.474,0 -8.602,3.542 -8.602,9.89"
       id="path4050"
       inkscape:connector-curvature="0" />
    <path
       d="m 234.70029,241.76365 0.092,-3.818 c -2.852,0.138 -5.244,2.438 -6.394,5.29 l -0.092,0 -0.046,-4.83 -3.818,0 0,22.264 3.864,0 0,-9.338 c 0,-5.75 1.656,-7.866 4.002,-8.924 0.598,-0.276 1.61,-0.598 2.392,-0.644"
       id="path4052"
       inkscape:connector-curvature="0" />
    <path
       d="m 256.66313,250.41165 c 0.092,-0.828 0.138,-1.518 0.138,-2.208 0,-5.704 -2.99,-10.258 -8.74,-10.258 -6.20999,0 -10.764,5.152 -10.764,12.006 0,7.54399 4.55401,11.178 10.764,11.178 2.76,0 4.83,-0.414 6.992,-1.288 l -0.368,-2.944 c -1.702,0.828 -4.14,1.288 -6.072,1.288 -4.46199,0 -7.36,-2.71401 -7.452,-7.774 l 15.502,0 m -8.924,-9.522 c 3.404,0 5.244,2.806 5.244,6.486 l -11.638,0 c 0.552,-3.91 2.71401,-6.486 6.394,-6.486"
       id="path4054"
       inkscape:connector-curvature="0" />
    <path
       d="m 262.26651,260.66965 3.864,0 0,-22.264 -3.864,0 0,22.264 m 1.932,-25.53 c 1.334,0 2.392,-1.058 2.392,-2.392 0,-1.334 -1.058,-2.392 -2.392,-2.392 -1.334,0 -2.392,1.058 -2.392,2.392 0,1.334 1.058,2.392 2.392,2.392"
       id="path4056"
       inkscape:connector-curvature="0" />
    <path
       d="m 274.8856,236.97965 0,1.426 -3.634,0 0,2.944 3.634,0 0,19.32 3.864,0 0,-19.32 5.704,0 0,-2.944 -5.704,0 0,-2.024 c 0,-4.002 1.702,-6.348 4.784,-6.348 1.426,0 2.346,0.23 3.22,0.552 l 0.368,-2.852 c -0.828,-0.322 -2.392,-0.644 -3.634,-0.644 -5.47399,0 -8.602,3.542 -8.602,9.89"
       id="path4058"
       inkscape:connector-curvature="0" />
    <path
       d="m 303.57163,256.98965 0.138,3.68 3.726,0 0,-22.264 -3.864,0 0,12.236 c 0,4.59999 -2.806,7.36 -6.256,7.36 -3.58799,0 -4.462,-2.02401 -4.462,-6.302 l 0,-13.294 -3.864,0 0,14.49 c 0,5.42799 2.48401,8.234 7.222,8.234 3.312,0 5.704,-1.84001 7.268,-4.14 l 0.092,0"
       id="path4060"
       inkscape:connector-curvature="0" />
    <path
       d="m 318.32973,242.08565 -0.138,-3.68 -3.726,0 0,22.264 3.864,0 0,-12.236 c 0,-4.6 2.806,-7.36 6.256,-7.36 3.58799,0 4.462,2.024 4.462,6.302 l 0,13.294 3.864,0 0,-14.49 c 0,-5.428 -2.48401,-8.234 -7.222,-8.234 -3.312,0 -5.70401,1.84 -7.268,4.14 l -0.092,0"
       id="path4062"
       inkscape:connector-curvature="0" />
    <path
       d="m 358.01982,238.40565 -5.014,0 -9.292,10.534 -0.138,0 0,-21.39 -3.864,0 0,33.12 3.864,0 0,-7.452 2.576,-2.76 0.138,0 7.82,10.212 4.968,0 -10.212,-12.972 9.154,-9.292"
       id="path4064"
       inkscape:connector-curvature="0" />
    <path
       d="m 363.78491,255.88565 c -1.47199,0 -2.622,1.196 -2.622,2.622 0,1.472 1.15001,2.622 2.622,2.622 1.426,0 2.622,-1.15 2.622,-2.622 0,-1.426 -1.196,-2.622 -2.622,-2.622"
       id="path4066"
       inkscape:connector-curvature="0" />
    <path
       d="m 376.36879,242.08565 -0.138,-3.68 -3.726,0 0,22.264 3.864,0 0,-12.236 c 0,-4.6 2.806,-7.36 6.256,-7.36 3.588,0 4.462,2.024 4.462,6.302 l 0,13.294 3.864,0 0,-14.49 c 0,-5.428 -2.48401,-8.234 -7.222,-8.234 -3.312,0 -5.704,1.84 -7.268,4.14 l -0.092,0"
       id="path4068"
       inkscape:connector-curvature="0" />
    <path
       d="m 415.50688,250.41165 c 0.092,-0.828 0.138,-1.518 0.138,-2.208 0,-5.704 -2.99,-10.258 -8.74,-10.258 -6.20999,0 -10.764,5.152 -10.764,12.006 0,7.54399 4.55401,11.178 10.764,11.178 2.76,0 4.83,-0.414 6.992,-1.288 l -0.368,-2.944 c -1.702,0.828 -4.14,1.288 -6.072,1.288 -4.46199,0 -7.36,-2.71401 -7.452,-7.774 l 15.502,0 m -8.924,-9.522 c 3.404,0 5.244,2.806 5.244,6.486 l -11.638,0 c 0.552,-3.91 2.71401,-6.486 6.394,-6.486"
       id="path4070"
       inkscape:connector-curvature="0" />
    <path
       d="m 431.55226,238.40565 -5.336,0 0,-4.922 -3.864,0 0,4.922 -3.542,0 0,2.944 3.542,0 0,13.846 c 0,4.04799 2.208,5.934 5.796,5.934 1.886,0 3.128,-0.184 4.094,-0.598 l -0.414,-2.806 c -0.782,0.322 -1.61,0.46 -2.484,0.46 -2.254,0 -3.128,-1.28801 -3.128,-3.956 l 0,-12.88 5.336,0 0,-2.944"
       id="path4072"
       inkscape:connector-curvature="0" />
  </g>
</svg>
